<?xml version="1.0" encoding="utf-8"?>
<!-- Generator: Adobe Illustrator 25.0.0, SVG Export Plug-In . SVG Version: 6.00 Build 0)  -->
<svg version="1.1" id="Layer_1" xmlns="http://www.w3.org/2000/svg" xmlns:xlink="http://www.w3.org/1999/xlink" x="0px" y="0px"
	 viewBox="0 0 36 36" style="enable-background:new 0 0 36 36;" xml:space="preserve">
<style type="text/css">
	.st0{clip-path:url(#SVGID_2_);enable-background:new    ;}
	.st1{clip-path:url(#SVGID_4_);}
	.st2{clip-path:url(#SVGID_6_);}
	.st3{clip-path:url(#SVGID_8_);fill:#FFFFFF;}
	.st4{clip-path:url(#SVGID_10_);fill:#FFFFFF;}
</style>
<g>
	<g>
		<defs>
			<rect id="SVGID_1_" x="0" y="12.6" width="36" height="23.4"/>
		</defs>
		<clipPath id="SVGID_2_">
			<use xlink:href="#SVGID_1_"  style="overflow:visible;"/>
		</clipPath>
		<g class="st0">
			<g>
				<defs>
					<rect id="SVGID_3_" x="-2.3" y="11.3" width="38.3" height="24.8"/>
				</defs>
				<clipPath id="SVGID_4_">
					<use xlink:href="#SVGID_3_"  style="overflow:visible;"/>
				</clipPath>
				<g class="st1">
					<defs>
						<path id="SVGID_5_" d="M32.7,15.5c-0.3-1.7-1.8-2.9-3.7-2.9c0,0-0.1,0-0.1,0.1V13c0,1.5-1.1,2.9-2.7,3.2c-2.1,0.4-4-1.1-4-3
							v-0.6h-9c0,0-0.1,0-0.1,0.1V13c0,1.5-1.1,2.9-2.7,3.2c-2.1,0.4-4-1.1-4-3v-0.6c-1.7,0.1-3.1,1.3-3.3,2.8L0,35.9
							C0,36,0,36,0.1,36h35.9c0,0,0.1,0,0.1-0.1L32.7,15.5z"/>
					</defs>
					<clipPath id="SVGID_6_">
						<use xlink:href="#SVGID_5_"  style="overflow:visible;"/>
					</clipPath>
					<g class="st2">
						<defs>
							<rect id="SVGID_7_" x="0" y="11.3" width="36.1" height="24.8"/>
						</defs>
						<clipPath id="SVGID_8_">
							<use xlink:href="#SVGID_7_"  style="overflow:visible;"/>
						</clipPath>
						<rect x="-11.3" y="1.3" class="st3" width="58.6" height="45.9"/>
					</g>
				</g>
			</g>
		</g>
	</g>
	<g>
		<defs>
			<path id="SVGID_9_" d="M25.7,14.5c-0.8,0-1.4-0.6-1.4-1.3V8.6c0-3.3-2.9-6-6.4-6s-6.4,2.7-6.4,6v4.6c0,0.7-0.6,1.3-1.4,1.3
				c-0.8,0-1.4-0.6-1.4-1.3V8.6c0-4.7,4.2-8.6,9.3-8.6c5.1,0,9.3,3.9,9.3,8.6v4.6C27.1,13.9,26.4,14.5,25.7,14.5"/>
		</defs>
		<clipPath id="SVGID_10_">
			<use xlink:href="#SVGID_9_"  style="overflow:visible;"/>
		</clipPath>
		<rect x="-2.7" y="-11.3" class="st4" width="41.1" height="37"/>
	</g>
</g>
</svg>
